<svg width="166" height="189" viewBox="0 0 166 189" fill="none" xmlns="http://www.w3.org/2000/svg">
<path d="M96.5524 1.71541C99.2368 3.42718 100.443 7.80384 102.155 12.1805C112.853 41.1248 120.887 63.2416 132.072 93.1585C142.537 120.644 151.523 146.165 161.988 174.137C163.447 177.774 166.132 183.143 164.673 186.294C162.728 190.184 154.694 188.725 148.372 188.725C141.564 188.725 133.297 189.445 130.126 187.5C126.489 185.302 123.552 174.117 121.606 169.021L117.969 159.042C116.743 156.124 115.771 151.981 112.853 150.775C109.682 149.549 103.361 150.055 98.2642 150.055H67.861C63.2509 150.055 57.1625 149.316 53.5055 150.775C50.3349 152 49.1288 155.891 47.9034 159.042C45.219 165.85 43.0404 171.938 40.1226 178.98C38.6637 182.87 37.2048 186.761 33.8008 187.986C29.9104 189.445 23.1023 188.725 16.2941 188.725C10.4586 188.725 2.19152 189.931 0.732634 186.294C-0.473381 183.143 2.44441 177.541 3.90329 173.884C24.3277 119.652 45.005 65.6731 65.4295 11.6748C67.6275 6.07263 68.3473 1.46254 74.922 0.489952C79.5515 0.00365629 92.9149 -0.716067 96.5719 1.71541H96.5524ZM66.8884 102.884C65.6824 107.008 62.2783 114.322 63.7372 117.96C65.4295 122.103 76.3809 120.644 82.4693 120.644C87.8186 120.644 100.229 122.103 102.174 118.699C104.372 115.042 99.976 107.261 98.7699 103.371C95.3659 93.1585 92.4481 84.1523 88.7912 73.9401C87.8186 71.0223 85.1342 60.0709 81.4967 61.0435C78.0926 61.7633 76.6337 71.5086 75.6612 74.6598C72.7434 84.1523 69.8256 92.9057 66.9078 102.865L66.8884 102.884Z" fill="#FBF2EA"/>
</svg>
