<svg width="132" height="194" viewBox="0 0 132 194" fill="none" xmlns="http://www.w3.org/2000/svg">
<path d="M111.481 2.55513C117.803 4.24744 128.016 6.67892 130.447 12.0476C132.392 16.1714 131.42 24.9442 131.42 31.0132C131.42 35.1564 132.626 47.5473 129.222 48.5198C126.79 49.259 123.872 46.0884 122.161 44.8629C115.839 40.2528 108.778 36.8293 100.277 35.137C86.8944 32.7055 74.737 35.8567 65.9836 40.9725C49.1967 50.6984 37.7784 69.4306 37.0393 96.4297C36.553 110.299 40.1905 120.745 45.5592 130.237C50.675 139.477 57.2303 147.024 65.7502 152.12C74.5035 157.236 87.8864 160.387 100.53 157.723C108.797 156.011 115.858 152.373 122.18 147.744C124.125 146.285 126.81 143.62 129.241 144.34C132.645 145.312 131.439 157.47 131.439 162.099C131.439 169.394 132.159 177.174 130.214 180.831C127.529 185.694 118.056 187.873 112.454 189.585C105.879 191.53 97.6123 193.242 89.8316 193.242C72.8112 193.242 59.4283 188.612 48.0101 182.543C26.1268 170.872 9.82616 149.222 3.01802 122.223C-5.01559 90.3608 4.24348 58.0123 18.0932 38.3271C28.7917 22.999 42.408 11.0945 62.8324 4.28635C69.8935 1.85487 77.4213 0.629398 85.4549 0.143102C93.4885 -0.343194 102.962 0.395976 111.481 2.57458V2.55513Z" fill="#FBF2EA"/>
</svg>
