<svg width="141" height="185" viewBox="0 0 141 185" fill="none" xmlns="http://www.w3.org/2000/svg">
<path d="M35.1865 0.275772C45.1653 0.275772 54.6383 0.042352 62.9053 1.01494C80.1786 2.96013 93.7949 9.04855 104.241 16.8293C124.432 31.4182 141.685 57.9311 139.993 95.3759C138.534 130.642 122.973 155.21 100.117 169.799C89.1653 176.86 75.0628 182.695 56.8364 183.668C43.4535 184.407 29.6038 183.921 14.2757 183.921C9.41278 183.921 4.06352 184.154 1.86547 182.209C-0.799438 179.525 0.173155 167.853 0.173155 161.045V13.1529C0.173155 6.09187 -0.313142 1.48178 6.26158 0.509192C14.7815 -0.4634 26.1997 0.256323 35.2059 0.256323L35.1865 0.275772ZM36.1591 62.5411V122.861C36.1591 129.436 34.4668 147.915 38.1043 151.066C40.5357 153.012 47.1105 152.525 51.4871 152.039C84.8081 148.635 101.342 129.669 102.801 95.123C104.26 64 91.6163 43.809 69.4801 35.7948C62.6719 33.3634 51.2342 30.679 42.2475 31.9045C34.7002 32.8771 36.1591 39.1989 36.1591 47.4659V62.5411Z" fill="#FBF2EA"/>
</svg>
