<svg width="171" height="194" viewBox="0 0 171 194" fill="none" xmlns="http://www.w3.org/2000/svg">
<path d="M155.383 32.2117C157.095 34.8961 160.246 38.7865 160.013 42.1905C159.527 47.0535 151.979 49.2516 147.369 51.683L140.075 55.5734C137.643 56.7989 134.959 58.9775 132.294 58.7441C129.143 58.4912 127.431 55.34 125.972 52.9085C118.678 42.21 105.781 31.0252 87.3018 31.7449C65.9048 32.4841 52.7747 46.1004 45.2274 61.409C40.1116 71.8741 36.4741 85.4903 37.4467 100.799C38.1859 115.874 42.0762 127.798 48.3981 137.757C56.6651 150.654 72.4795 165.243 96.308 160.38C108.952 157.948 117.705 150.401 124.027 140.442C126.205 137.038 132.06 126.573 128.89 122.196C126.458 119.045 117.219 120.017 111.13 120.017C104.322 120.017 95.5688 120.99 93.1373 118.072C91.1922 115.894 91.6785 110.291 91.6785 104.942C91.6785 101.052 90.9587 94.4771 93.3902 92.2985C96.0551 89.6141 105.548 90.5867 111.383 90.5867H150.773C157.834 90.5867 167.074 89.867 169.505 92.5319C171.937 95.4497 170.731 103.483 170.478 107.86C167.074 143.846 151.746 171.098 126.458 184.228C115.274 190.063 100.685 193.954 83.8977 192.981C56.8986 191.522 39.1585 181.057 25.2893 165.982C13.8516 153.572 6.32374 138.01 2.43337 120.017C-1.94329 100.079 0.235312 76.737 6.32374 59.9501C16.3025 31.9783 36.9604 9.37529 68.8225 2.08084C73.9384 0.855377 79.2876 0.369081 84.384 0.135659C117.452 -1.55665 141.281 12.7794 155.403 32.2312L155.383 32.2117Z" fill="#FBF2EA"/>
</svg>
