<svg fill="none" height="224" viewBox="0 0 160 224" width="160" xmlns="http://www.w3.org/2000/svg"><path d="m25.0425.881177c4.6295 1.458893 9.9788 9.725923 13.13 14.102623 25.2874 34.0407 49.8551 67.3617 75.8815 101.1692 3.404 4.376 8.753 10.465 9.493.486.486-7.061 0-15.561 0-22.1361v-58.375c0-4.8629-.487-11.6711 1.692-13.8691 2.918-2.6844 10.951-1.7118 16.301-1.7118 5.835 0 14.588-.9726 16.787 2.1981 2.684 3.8903 1.225 15.5614 1.225 22.1362v123.7917c0 6.808.973 18.732-1.459 21.65-2.684 2.917-17.759 2.917-22.856 1.225-5.349-1.945-9.492-9.726-12.896-14.355-25.5406-33.808-49.8555-66.876-76.1154-100.9165-1.7118-2.4314-4.863-6.8081-7.2945-6.0884-2.6649.7392-2.1786 8.267-2.1786 12.8966v125.2313c0 5.602.4863 11.671-1.9452 13.869-2.6843 2.431-11.1848 1.459-16.0477 1.459-5.1159 0-13.13003.972-16.0478-1.459-2.917781-2.665-1.945189-14.356-1.945189-21.65v-175.5724c0-7.5279-1.206005-18.47929 1.225479-22.13624.97259-1.45889 1.71176-1.945183 4.86296-2.431479 2.68435-.233422 14.10255-.972592 18.24585.486296z" fill="#fbf2ea"/></svg>