<svg width="161" height="224" viewBox="0 0 161 224" fill="none" xmlns="http://www.w3.org/2000/svg">
<path d="M135.43 222.955C130.801 221.496 125.451 213.229 122.3 208.852C97.0127 174.811 72.445 141.49 46.4184 107.683C43.0143 103.306 37.6651 97.2179 36.926 107.197C36.4397 114.258 36.926 122.758 36.926 129.333V187.708C36.926 192.571 37.4122 199.379 35.2336 201.577C32.3158 204.261 24.2823 203.289 18.933 203.289C13.0975 203.289 4.34412 204.261 2.14606 201.091C-0.538294 197.2 0.920585 185.529 0.920585 178.955V55.163C0.920585 48.3549 -0.0520071 36.4309 2.37947 33.5131C5.06383 30.5954 20.139 30.5953 25.2354 32.2877C30.5846 34.2328 34.7279 42.0136 38.132 46.6431C63.6722 80.4504 87.9871 113.519 114.247 147.559C115.959 149.991 119.11 154.367 121.541 153.648C124.206 152.909 123.72 145.381 123.72 140.751V15.5202C123.72 9.91804 123.234 3.84906 125.665 1.65101C128.35 -0.780475 136.85 0.192117 141.713 0.192117C146.829 0.192117 154.843 -0.780475 157.761 1.65101C160.679 4.31591 159.706 16.0065 159.706 23.3009V198.873C159.706 206.401 160.912 217.353 158.481 221.009C157.508 222.468 156.769 222.955 153.618 223.441C150.933 223.674 139.515 224.414 135.372 222.955H135.43Z" fill="#FBF2EA"/>
</svg>
